<?xml version="1.0" standalone="no"?>
<!DOCTYPE svg PUBLIC "-//W3C//DTD SVG 20010904//EN" "http://www.w3.org/TR/2001/REC-SVG-20010904/DTD/svg10.dtd">
<!-- Created using Krita: https://krita.org -->
<svg xmlns="http://www.w3.org/2000/svg" 
    xmlns:xlink="http://www.w3.org/1999/xlink"
    xmlns:krita="http://krita.org/namespaces/svg/krita"
    xmlns:sodipodi="http://sodipodi.sourceforge.net/DTD/sodipodi-0.dtd"
    width="168.001pt"
    height="168.001pt"
    viewBox="0 0 168.001 168.001">
<defs/>
<path id="shape1" transform="matrix(-2.0627973332133 0 0 2.07903939890699 123.606205007663 89.9232236381826)" fill="none" stroke="#000000" stroke-width="1.20000447761885" stroke-linecap="round" stroke-linejoin="bevel" d="M8.22426 0C6.03882 3.33299 3.29739 5.76316 0 7.29051" sodipodi:nodetypes="cc"/><path id="shape01" transform="matrix(2.07903947031161 0 0 2.07903947031161 65.5031667512599 11.2427115412563)" fill="none" stroke="#000000" stroke-width="1.20000447761885" stroke-linecap="square" stroke-linejoin="bevel" d="M8.89698 0.000152117C-5.23993 -0.0715149 -0.452243 25.2041 8.89698 25.3712C18.7611 25.3341 23.249 0.0729096 8.89698 0.000152117Z" sodipodi:nodetypes="ccs"/><path id="shape11" transform="matrix(2.07903947031161 0 0 2.07903947031161 22.1939370790801 61.6971512358178)" fill="none" stroke="#000000" stroke-width="1.20000447761885" stroke-linecap="square" stroke-linejoin="bevel" d="M22.7406 0C19.2204 1.89478e-14 16.2788 1.24451 13.9159 3.73354C12.0568 4.60492 3.312 1.76011 0 13.7462" sodipodi:nodetypes="ccc"/><path id="shape2" transform="matrix(2.07903947031161 0 0 2.07903947031161 44.0826416798705 89.9232323726876)" fill="none" stroke="#000000" stroke-width="1.20000447761885" stroke-linecap="round" stroke-linejoin="bevel" d="M8.22426 0C6.03882 3.33299 3.29739 5.76316 0 7.29051" sodipodi:nodetypes="cc"/><path id="shape3" transform="matrix(2.07903947031161 0 0 2.07903947031161 50.0671856925276 101.742896218102)" fill="none" stroke="#000000" stroke-width="1.20000447761885" stroke-linecap="round" stroke-linejoin="bevel" d="M0 0C2.56201 3.73354 3.20251 7.83477 1.9215 12.3037" sodipodi:nodetypes="cc"/><path id="shape4" transform="matrix(2.07903947031161 0 0 2.07903947031161 64.0414950680336 102.095722222563)" fill="none" stroke="#000000" stroke-width="1.20000447761885" stroke-linecap="square" stroke-linejoin="bevel" d="M26.0318 0C23.6057 3.4005 22.9285 7.07906 24.0001 11.0357C16.7515 15.6711 8.7515 19.4879 0 22.4861" sodipodi:nodetypes="ccc"/><path id="shape5" transform="matrix(2.07903947031161 0 0 2.07903947031161 56.7708797772506 119.482338980976)" fill="none" stroke="#000000" stroke-width="1.20000447761885" stroke-linecap="round" stroke-linejoin="bevel" d="M24.5226 0C14.1329 0.0193028 5.95868 1.80122 0 5.34575" sodipodi:nodetypes="cc"/><path id="shape6" transform="matrix(2.07903947031161 0 0 2.07903947031161 60.2991398218426 105.080495163045)" fill="none" stroke="#000000" stroke-width="1.20000447761885" stroke-linecap="round" stroke-linejoin="bevel" d="M0 6.54054C5.68128 6.64911 9.18854 4.46893 10.5218 0" sodipodi:nodetypes="cc"/><path id="shape011" transform="matrix(-2.08239143920373 0 0 2.07903940950363 107.739778677216 105.080495810969)" fill="none" stroke="#000000" stroke-width="1.20000447761885" stroke-linecap="round" stroke-linejoin="bevel" d="M0 6.54054C5.68128 6.64911 9.18854 4.46893 10.5218 0" sodipodi:nodetypes="cc"/><path id="shape7" transform="matrix(2.07903947031161 0 0 2.07903947031161 85.3725197299967 140.756945714652)" fill="#ffffff" stroke="#000000" stroke-width="1.20000447761885" stroke-linecap="square" stroke-linejoin="bevel" d="M0 0C5.52002 0.960004 10.1 1.16 13.7401 0.600002" sodipodi:nodetypes="cc"/><path id="shape011_1888bfe3" transform="matrix(-2.05448458288463 0 0 2.07903951036865 145.07677365395 61.6971559230158)" fill="none" stroke="#000000" stroke-width="1.20000447761885" stroke-linecap="square" stroke-linejoin="bevel" d="M22.7406 0C19.2204 1.89478e-14 16.2788 1.24451 13.9159 3.73354C12.0568 4.60492 3.312 1.76011 0 13.7462" sodipodi:nodetypes="ccc"/><path id="shape0" transform="matrix(2.07903956039071 0 0 2.07903956039071 16.6927421257225 35.8048489505587)" fill="none" stroke="#71b687" stroke-width="2.4000089552377" stroke-linecap="square" stroke-linejoin="miter" stroke-miterlimit="1.92000710964203" d="M20.6349 0.150271C6.54633 0.0859401 7.81972 0.0356553 0.0112039 0C-0.443884 37.0943 13.0086 55.1615 32.3744 56.7464C62.2903 55.5866 66.2153 11.5266 64.7376 0.295554C52.7518 0.240824 53.5345 0.235018 44.2665 0.192698" sodipodi:nodetypes="ccccc"/>
</svg>
